<?xml version="1.0" encoding="utf-8"?>
<!-- Svg Vector Icons : http://www.onlinewebfonts.com/icon -->
<!DOCTYPE svg PUBLIC "-//W3C//DTD SVG 1.1//EN" "http://www.w3.org/Graphics/SVG/1.1/DTD/svg11.dtd">
<svg version="1.1" xmlns="http://www.w3.org/2000/svg" xmlns:xlink="http://www.w3.org/1999/xlink" x="0px" y="0px" viewBox="0 0 256 256" enable-background="new 0 0 256 256" xml:space="preserve">
<metadata> Svg Vector Icons : http://www.onlinewebfonts.com/icon </metadata>
<g><g><g><path fill="#000000" d="M212.3,142.3v70.2c0,2.5-0.9,4.7-2.8,6.6c-1.9,1.9-4,2.8-6.6,2.8h-56.2v-56.2h-37.5v56.2H53.1c-2.5,0-4.7-0.9-6.6-2.8c-1.9-1.9-2.8-4-2.8-6.6v-70.2c0-0.1,0-0.2,0.1-0.4c0-0.2,0.1-0.3,0.1-0.4L128,72l84.2,69.4C212.3,141.6,212.3,141.9,212.3,142.3L212.3,142.3z M245,132.2l-9.1,10.8c-0.8,0.9-1.8,1.4-3.1,1.6h-0.4c-1.3,0-2.3-0.3-3.1-1L128,59.1L26.7,143.6c-1.2,0.8-2.3,1.1-3.5,1c-1.3-0.2-2.3-0.7-3.1-1.6l-9.1-10.8c-0.8-1-1.1-2.1-1-3.4c0.1-1.3,0.6-2.4,1.6-3.2l105.2-87.7c3.1-2.5,6.8-3.8,11.1-3.8c4.3,0,8,1.3,11.1,3.8l35.7,29.9V39.2c0-1.4,0.4-2.5,1.3-3.4c0.9-0.9,2-1.3,3.4-1.3h28.1c1.4,0,2.5,0.4,3.4,1.3c0.9,0.9,1.3,2,1.3,3.4v59.7l32.1,26.7c1,0.8,1.5,1.8,1.6,3.2C246.1,130.1,245.7,131.2,245,132.2L245,132.2z"/></g></g></g>
</svg>